<svg width="30" height="30" viewBox="0 0 30 30" fill="none" xmlns="http://www.w3.org/2000/svg">
<g clip-path="url(#clip0_2_26)" filter="url(#filter0_d_2_26)">
<path d="M15 6C18.79 6 22.17 8.13 23.82 11.5C23.23 12.72 22.4 13.77 21.41 14.62L22.82 16.03C24.21 14.8 25.31 13.26 26 11.5C24.27 7.11 20 4 15 4C13.73 4 12.51 4.2 11.36 4.57L13.01 6.22C13.66 6.09 14.32 6 15 6ZM13.93 7.14L16 9.21C16.57 9.46 17.03 9.92 17.28 10.49L19.35 12.56C19.43 12.22 19.49 11.86 19.49 11.49C19.5 9.01 17.48 7 15 7C14.63 7 14.28 7.05 13.93 7.14ZM5.01 3.87L7.69 6.55C6.06 7.83 4.77 9.53 4 11.5C5.73 15.89 10 19 15 19C16.52 19 17.98 18.71 19.32 18.18L22.74 21.6L24.15 20.19L6.42 2.45L5.01 3.87ZM12.51 11.37L15.12 13.98C15.08 13.99 15.04 14 15 14C13.62 14 12.5 12.88 12.5 11.5C12.5 11.45 12.51 11.42 12.51 11.37ZM9.11 7.97L10.86 9.72C10.63 10.27 10.5 10.87 10.5 11.5C10.5 13.98 12.52 16 15 16C15.63 16 16.23 15.87 16.77 15.64L17.75 16.62C16.87 16.86 15.95 17 15 17C11.21 17 7.83 14.87 6.18 11.5C6.88 10.07 7.9 8.89 9.11 7.97Z" fill="#999999"/>
</g>
<defs>
<filter id="filter0_d_2_26" x="-1" y="0" width="32" height="32" filterUnits="userSpaceOnUse" color-interpolation-filters="sRGB">
<feFlood flood-opacity="0" result="BackgroundImageFix"/>
<feColorMatrix in="SourceAlpha" type="matrix" values="0 0 0 0 0 0 0 0 0 0 0 0 0 0 0 0 0 0 127 0" result="hardAlpha"/>
<feOffset dy="4"/>
<feGaussianBlur stdDeviation="2"/>
<feComposite in2="hardAlpha" operator="out"/>
<feColorMatrix type="matrix" values="0 0 0 0 0 0 0 0 0 0 0 0 0 0 0 0 0 0 0.25 0"/>
<feBlend mode="normal" in2="BackgroundImageFix" result="effect1_dropShadow_2_26"/>
<feBlend mode="normal" in="SourceGraphic" in2="effect1_dropShadow_2_26" result="shape"/>
</filter>
<clipPath id="clip0_2_26">
<rect width="24" height="24" fill="white" transform="translate(3)"/>
</clipPath>
</defs>
</svg>
